<svg xmlns="http://www.w3.org/2000/svg" width="16" height="16" fill="context-fill #0c0c0d"><path fill-rule="evenodd" d="M8 16a1 1 0 0 1-1-1v-2.1a5 5 0 0 1-1.65-.76l-1.5 1.5a1 1 0 0 1-1.5-1.5l1.5-1.5A5 5 0 0 1 3.1 9H1a1 1 0 1 1 0-2h2.1a5 5 0 0 1 .76-1.65l-1.5-1.5a1 1 0 0 1 1.5-1.5l1.5 1.5A5 5 0 0 1 7 3.1V1a1 1 0 1 1 2 0v2.1a5 5 0 0 1 1.65.76l1.5-1.5a1 1 0 1 1 1.5 1.5l-1.5 1.5A5 5 0 0 1 12.9 7H15a1 1 0 1 1 0 2h-2.1a5 5 0 0 1-.76 1.65l1.5 1.5a1 1 0 0 1-1.5 1.5l-1.5-1.5A5 5 0 0 1 9 12.9V15a1 1 0 0 1-1 1zM5 8a3 3 0 1 1 6 0 3 3 0 0 1-6 0z"/></svg>